<?xml version="1.0" encoding="UTF-8" standalone="no"?>
<svg width="819px" height="310px" viewBox="0 0 819 310" version="1.1" xmlns="http://www.w3.org/2000/svg" xmlns:xlink="http://www.w3.org/1999/xlink" xmlns:sketch="http://www.bohemiancoding.com/sketch/ns">
    <title>layout</title>
    <description>Created with Sketch (http://www.bohemiancoding.com/sketch)</description>
    <defs></defs>
    <g id="Page-1" stroke="none" stroke-width="1" fill="none" fill-rule="evenodd" sketch:type="MSPage">
        <rect id="Rectangle-1" stroke="#FF623D" fill="#FF623D" sketch:type="MSShapeGroup" x="0" y="114" width="137" height="79" rx="8"></rect>
        <text id="Réseau" sketch:type="MSTextLayer" font-family="Lucida Console" font-size="30" font-weight="normal" fill="#000000">
            <tspan x="14" y="161">Réseau</tspan>
        </text>
        <rect id="Rectangle-1-copy" stroke="#B0190E" fill="#B0190E" sketch:type="MSShapeGroup" x="241" y="231" width="137" height="79" rx="8"></rect>
        <text id="CSSOM" sketch:type="MSTextLayer" font-family="Lucida Console" font-size="30" font-weight="normal" sketch:alignment="middle" fill="#000000">
            <tspan x="264.30957" y="278">CSSOM</tspan>
        </text>
        <rect id="Rectangle-1-copy-2" stroke="#D52120" fill="#D52120" sketch:type="MSShapeGroup" x="481" y="115" width="137" height="79" rx="8"></rect>
        <text id="Layout" sketch:type="MSTextLayer" font-family="Lucida Console" font-size="30" font-weight="normal" sketch:alignment="middle" fill="#000000">
            <tspan x="495.271484" y="162">Layout</tspan>
        </text>
        <rect id="Rectangle-1-copy-3" stroke="#D52120" fill="#D52120" sketch:type="MSShapeGroup" x="682" y="115" width="137" height="79" rx="8"></rect>
        <text id="Paint" sketch:type="MSTextLayer" font-family="Lucida Console" font-size="30" font-weight="normal" sketch:alignment="middle" fill="#000000">
            <tspan x="705.30957" y="162">Paint</tspan>
        </text>
        <rect id="Rectangle-1-copy-2" stroke="#B0190E" fill="#B0190E" sketch:type="MSShapeGroup" x="242" y="0" width="137" height="79" rx="8"></rect>
        <text id="DOM-copy" sketch:type="MSTextLayer" font-family="Lucida Console" font-size="30" font-weight="normal" sketch:alignment="middle" fill="#000000">
            <tspan x="283.385742" y="47">DOM</tspan>
        </text>
        <rect id="Rectangle-1-copy-3" stroke="#50E3C2" fill="#50E3C2" sketch:type="MSShapeGroup" x="241" y="114" width="137" height="79" rx="8"></rect>
        <text id="Javascript" sketch:type="MSTextLayer" font-family="Lucida Console" font-size="18" font-weight="normal" sketch:alignment="middle" fill="#000000">
            <tspan x="255.271484" y="159">Javascript</tspan>
        </text>
        <path d="M137,154 C137,154 173.118265,162.409322 190.088698,209.487008 C207.059132,256.564693 241,272 241,272" id="Path-1" stroke="#D4D4D4" stroke-width="4" sketch:type="MSShapeGroup"></path>
        <path id="Path-1-decoration-1" d="M240.961537,271.982215 C238.15636,269.283305 235.932135,266.858373 233.472516,263.924896 C232.257771,265.637904 231.216562,267.106196 230.001818,268.819204 C233.818439,270.135916 237.096846,271.096433 240.961537,271.982215 C240.961537,271.982215 240.961537,271.982215 240.961537,271.982215 Z" stroke="#D4D4D4" stroke-width="4"></path>
        <path d="M137,36 C137,36 173.118265,44.4093221 190.088698,91.4870078 C207.059132,138.564693 241,154 241,154" id="Path-1-copy" stroke="#D4D4D4" stroke-width="4" sketch:type="MSShapeGroup" transform="translate(189.000000, 95.000000) scale(1, -1) translate(-189.000000, -95.000000) "></path>
        <path id="Path-1-copy-decoration-1" d="M240.961537,153.982215 C238.15636,151.283305 235.932135,148.858373 233.472516,145.924896 C232.257771,147.637904 231.216562,149.106196 230.001818,150.819204 C233.818439,152.135916 237.096846,153.096433 240.961537,153.982215 C240.961537,153.982215 240.961537,153.982215 240.961537,153.982215 Z" stroke="#D4D4D4" stroke-width="4"></path>
        <path d="M379,35 C379,35 415.118265,43.4093221 432.088698,90.4870078 C449.059132,137.564693 483,153 483,153" id="Path-1-copy-2" stroke="#D4D4D4" stroke-width="4" sketch:type="MSShapeGroup" transform="translate(431.000000, 94.000000) scale(-1, -1) translate(-431.000000, -94.000000) "></path>
        <path id="Path-1-copy-2-decoration-1" d="M379.765152,35.2055195 C383.735422,35.4479742 387.136945,35.8883649 391.120714,36.6397049 C390.159148,38.506625 389.334948,40.1068421 388.373382,41.9737621 C385.546078,39.449143 382.982206,37.4082461 379.765152,35.2055195 C379.765152,35.2055195 379.765152,35.2055195 379.765152,35.2055195 Z" stroke="#D4D4D4" stroke-width="4"></path>
        <path d="M378,155 C378,155 414.118265,163.409322 431.088698,210.487008 C448.059132,257.564693 482,273 482,273" id="Path-1-copy-3" stroke="#D4D4D4" stroke-width="4" sketch:type="MSShapeGroup" transform="translate(430.000000, 214.000000) scale(-1, 1) translate(-430.000000, -214.000000) "></path>
        <path id="Path-1-copy-3-decoration-1" d="M378.765152,155.205519 C382.735422,155.447974 386.136945,155.888365 390.120714,156.639705 C389.159148,158.506625 388.334948,160.106842 387.373382,161.973762 C384.546078,159.449143 381.982206,157.408246 378.765152,155.205519 C378.765152,155.205519 378.765152,155.205519 378.765152,155.205519 Z" stroke="#D4D4D4" stroke-width="4"></path>
        <path d="M145.5,154 L236.5,154" id="Line" stroke="#D4D4D4" stroke-width="4" stroke-linecap="square" sketch:type="MSShapeGroup"></path>
        <path id="Line-decoration-1" d="M236.5,154 C232.72,152.95 229.48,152.05 225.7,151 C225.7,153.1 225.7,154.9 225.7,157 C229.48,155.95 232.72,155.05 236.5,154 C236.5,154 236.5,154 236.5,154 Z" stroke="#D4D4D4" stroke-width="4" stroke-linecap="square"></path>
        <path d="M311,197.5 L311,227.5" id="Line-copy" stroke="#D4D4D4" stroke-width="4" stroke-linecap="square" sketch:type="MSShapeGroup"></path>
        <path id="Line-copy-decoration-1" d="M311,227.5 C312.05,223.72 312.95,220.48 314,216.7 C311.9,216.7 310.1,216.7 308,216.7 C309.05,220.48 309.95,223.72 311,227.5 C311,227.5 311,227.5 311,227.5 Z" stroke="#D4D4D4" stroke-width="4" stroke-linecap="square"></path>
        <path d="M313,79.5 L313,109.5" id="Line-copy-2" stroke="#D4D4D4" stroke-width="4" stroke-linecap="square" sketch:type="MSShapeGroup" transform="translate(313.000000, 94.500000) scale(1, -1) translate(-313.000000, -94.500000) "></path>
        <path id="Line-copy-2-decoration-1" d="M313,109.5 C314.05,105.72 314.95,102.48 316,98.7000001 C313.9,98.7 312.1,98.7 310,98.6999999 C311.05,102.48 311.95,105.72 313,109.5 C313,109.5 313,109.5 313,109.5 Z" stroke="#D4D4D4" stroke-width="4" stroke-linecap="square"></path>
        <path d="M384.5,155 L475.5,155" id="Line-copy" stroke="#D4D4D4" stroke-width="4" stroke-linecap="square" sketch:type="MSShapeGroup"></path>
        <path id="Line-copy-decoration-1" d="M475.5,155 C471.72,153.95 468.48,153.05 464.7,152 C464.7,154.1 464.7,155.9 464.7,158 C468.48,156.95 471.72,156.05 475.5,155 C475.5,155 475.5,155 475.5,155 Z" stroke="#D4D4D4" stroke-width="4" stroke-linecap="square"></path>
        <path d="M622.5,157 L677.5,157" id="Line-copy-2" stroke="#D4D4D4" stroke-width="4" stroke-linecap="square" sketch:type="MSShapeGroup"></path>
        <path id="Line-copy-2-decoration-1" d="M677.5,157 C673.72,155.95 670.48,155.05 666.7,154 C666.7,156.1 666.7,157.9 666.7,160 C670.48,158.95 673.72,158.05 677.5,157 C677.5,157 677.5,157 677.5,157 Z" stroke="#D4D4D4" stroke-width="4" stroke-linecap="square"></path>
    </g>
</svg>